<svg width="41" height="44" viewBox="0 0 41 44" fill="none" xmlns="http://www.w3.org/2000/svg">
<g clip-path="url(#clip0_3_54)">
<path d="M10.0562 15.768C8.92058 13.8731 9.53614 11.4163 11.4311 10.2807L25.1553 2.05606C27.0502 0.920468 29.5069 1.53603 30.6425 3.43095L38.8672 17.1552C40.0028 19.0501 39.3872 21.5068 37.4923 22.6424L23.7681 30.8671C21.8732 32.0027 19.4164 31.3871 18.2809 29.4922L10.0562 15.768Z" fill="#B038FF"/>
<path d="M19.8623 12.2442C22.231 10.8247 25.3019 11.5942 26.7214 13.9628L34.946 27.687C36.3655 30.0557 35.5961 33.1266 33.2274 34.5461L19.5032 42.7708C17.1345 44.1902 14.0636 43.4208 12.6442 41.0521L4.41948 27.3279C2.99999 24.9593 3.76943 21.8884 6.13808 20.4689L19.8623 12.2442Z" fill="#FFA617"/>
<path d="M19.8623 12.2442C22.231 10.8247 25.3019 11.5942 26.7214 13.9628L34.946 27.687C36.3655 30.0557 35.5961 33.1266 33.2274 34.5461L19.5032 42.7708C17.1345 44.1902 14.0636 43.4208 12.6442 41.0521L4.41948 27.3279C2.99999 24.9593 3.76943 21.8884 6.13808 20.4689L19.8623 12.2442Z" stroke="white" stroke-width="2"/>
</g>
<defs>
<clipPath id="clip0_3_54">
<rect width="41" height="44" fill="white"/>
</clipPath>
</defs>
</svg>
