<svg width="138" height="48" viewBox="0 0 138 48" fill="none" xmlns="http://www.w3.org/2000/svg">
<g clip-path="url(#clip0_49_1289)">
<path d="M9.42738 30.288C8.32338 30.288 7.31538 30.104 6.40338 29.736C5.49138 29.368 4.71538 28.824 4.07538 28.104C3.43538 27.368 2.93938 26.464 2.58738 25.392C2.23538 24.304 2.05938 23.048 2.05938 21.624C2.05938 20.2 2.23538 18.952 2.58738 17.88C2.93938 16.792 3.43538 15.888 4.07538 15.168C4.71538 14.432 5.49138 13.88 6.40338 13.512C7.31538 13.144 8.32338 12.96 9.42738 12.96C10.5314 12.96 11.5394 13.144 12.4514 13.512C13.3634 13.88 14.1394 14.432 14.7794 15.168C15.4194 15.888 15.9154 16.792 16.2674 17.88C16.6194 18.952 16.7954 20.2 16.7954 21.624C16.7954 23.048 16.6194 24.304 16.2674 25.392C15.9154 26.464 15.4194 27.368 14.7794 28.104C14.1394 28.824 13.3634 29.368 12.4514 29.736C11.5394 30.104 10.5314 30.288 9.42738 30.288ZM9.42738 27.048C10.5314 27.048 11.3874 26.688 11.9954 25.968C12.6194 25.248 12.9314 24.216 12.9314 22.872V20.376C12.9314 19.032 12.6194 18 11.9954 17.28C11.3874 16.56 10.5314 16.2 9.42738 16.2C8.32338 16.2 7.45938 16.56 6.83538 17.28C6.22738 18 5.92338 19.032 5.92338 20.376V22.872C5.92338 24.216 6.22738 25.248 6.83538 25.968C7.45938 26.688 8.32338 27.048 9.42738 27.048ZM19.6482 30V17.4H23.2002V19.536H23.3442C23.5682 18.88 23.9602 18.312 24.5202 17.832C25.0802 17.352 25.8562 17.112 26.8482 17.112C28.1442 17.112 29.1202 17.544 29.7762 18.408C30.4482 19.272 30.7842 20.504 30.7842 22.104V30H27.2322V22.392C27.2322 21.576 27.1042 20.976 26.8482 20.592C26.5922 20.192 26.1362 19.992 25.4802 19.992C25.1922 19.992 24.9122 20.032 24.6402 20.112C24.3682 20.176 24.1202 20.288 23.8962 20.448C23.6882 20.608 23.5202 20.808 23.3922 21.048C23.2642 21.272 23.2002 21.536 23.2002 21.84V30H19.6482ZM45.2329 30.288C43.7609 30.288 42.5129 30.04 41.4889 29.544C40.4649 29.032 39.5929 28.376 38.8729 27.576L41.2729 25.152C42.4089 26.432 43.8089 27.072 45.4729 27.072C46.3689 27.072 47.0329 26.888 47.4649 26.52C47.8969 26.152 48.1129 25.664 48.1129 25.056C48.1129 24.592 47.9849 24.208 47.7289 23.904C47.4729 23.584 46.9529 23.368 46.1689 23.256L44.5129 23.04C42.7369 22.816 41.4329 22.28 40.6009 21.432C39.7849 20.584 39.3769 19.456 39.3769 18.048C39.3769 17.296 39.5209 16.608 39.8089 15.984C40.0969 15.36 40.5049 14.824 41.0329 14.376C41.5769 13.928 42.2329 13.584 43.0009 13.344C43.7849 13.088 44.6729 12.96 45.6649 12.96C46.9289 12.96 48.0409 13.16 49.0009 13.56C49.9609 13.96 50.7849 14.544 51.4729 15.312L49.0489 17.76C48.6489 17.296 48.1609 16.92 47.5849 16.632C47.0249 16.328 46.3129 16.176 45.4489 16.176C44.6329 16.176 44.0249 16.32 43.6249 16.608C43.2249 16.896 43.0249 17.296 43.0249 17.808C43.0249 18.384 43.1769 18.8 43.4809 19.056C43.8009 19.312 44.3129 19.496 45.0169 19.608L46.6729 19.872C48.4009 20.144 49.6809 20.68 50.5129 21.48C51.3449 22.264 51.7609 23.384 51.7609 24.84C51.7609 25.64 51.6169 26.376 51.3289 27.048C51.0409 27.72 50.6169 28.296 50.0569 28.776C49.5129 29.256 48.8329 29.632 48.0169 29.904C47.2009 30.16 46.2729 30.288 45.2329 30.288ZM54.5935 12.24H58.1455V22.728H58.2895L59.8495 20.4L62.3695 17.4H66.3055L62.1055 22.224L66.7855 30H62.5615L59.7295 24.672L58.1455 26.448V30H54.5935V12.24ZM70.2211 16.056C69.5011 16.056 68.9731 15.896 68.6371 15.576C68.3171 15.24 68.1571 14.816 68.1571 14.304V13.776C68.1571 13.264 68.3171 12.848 68.6371 12.528C68.9731 12.192 69.5011 12.024 70.2211 12.024C70.9411 12.024 71.4611 12.192 71.7811 12.528C72.1171 12.848 72.2851 13.264 72.2851 13.776V14.304C72.2851 14.816 72.1171 15.24 71.7811 15.576C71.4611 15.896 70.9411 16.056 70.2211 16.056ZM68.4451 17.4H71.9971V30H68.4451V17.4ZM78.8403 30C77.6243 30 76.7283 29.704 76.1523 29.112C75.5923 28.52 75.3123 27.664 75.3123 26.544V12.24H78.8643V27.24H80.4483V30H78.8403ZM85.9184 30C84.7024 30 83.8064 29.704 83.2304 29.112C82.6704 28.52 82.3904 27.664 82.3904 26.544V12.24H85.9424V27.24H87.5264V30H85.9184Z" fill="#47477A"/>
<g clip-path="url(#clip1_49_1289)">
<path d="M121.77 1.41274C124.02 0.0642207 126.937 0.795196 128.286 3.04541L136.511 16.7696C137.859 19.0199 137.128 21.9372 134.878 23.2857L121.154 31.5104C118.903 32.8589 115.986 32.128 114.638 29.8777L106.413 16.1535C105.064 13.9033 105.795 10.9859 108.046 9.63742L121.77 1.41274Z" fill="url(#paint0_linear_49_1289)"/>
<path d="M121.77 1.41274C124.02 0.0642207 126.937 0.795196 128.286 3.04541L136.511 16.7696C137.859 19.0199 137.128 21.9372 134.878 23.2857L121.154 31.5104C118.903 32.8589 115.986 32.128 114.638 29.8777L106.413 16.1535C105.064 13.9033 105.795 10.9859 108.046 9.63742L121.77 1.41274Z" stroke="#A4A4B7" stroke-width="1.5"/>
<path d="M116.991 12.4586C119.241 11.1101 122.159 11.8411 123.507 14.0913L131.732 27.8155C133.08 30.0658 132.349 32.9831 130.099 34.3316L116.375 42.5563C114.125 43.9048 111.207 43.1739 109.859 40.9236L101.634 27.1994C100.286 24.9492 101.016 22.0318 103.267 20.6833L116.991 12.4586Z" fill="url(#paint1_linear_49_1289)"/>
<path d="M116.991 12.4586C119.241 11.1101 122.159 11.8411 123.507 14.0913L131.732 27.8155C133.08 30.0658 132.349 32.9831 130.099 34.3316L116.375 42.5563C114.125 43.9048 111.207 43.1739 109.859 40.9236L101.634 27.1994C100.286 24.9492 101.016 22.0318 103.267 20.6833L116.991 12.4586Z" stroke="#A4A4B7" stroke-width="1.5"/>
</g>
</g>
<defs>
<linearGradient id="paint0_linear_49_1289" x1="123.779" y1="1.95438" x2="113.279" y2="39.4544" gradientUnits="userSpaceOnUse">
<stop stop-color="#393962"/>
<stop offset="1" stop-color="#7474C8"/>
</linearGradient>
<linearGradient id="paint1_linear_49_1289" x1="119" y1="13.0003" x2="108.5" y2="50.5003" gradientUnits="userSpaceOnUse">
<stop stop-color="#393962"/>
<stop offset="1" stop-color="#7474C8"/>
</linearGradient>
<clipPath id="clip0_49_1289">
<rect width="138" height="48" fill="white"/>
</clipPath>
<clipPath id="clip1_49_1289">
<rect width="38" height="44" fill="white" transform="translate(100)"/>
</clipPath>
</defs>
</svg>
