<svg width="138" height="45" viewBox="0 0 138 45" fill="none" xmlns="http://www.w3.org/2000/svg">
<path d="M9.42738 31.1278C8.32338 31.1278 7.31538 30.9438 6.40338 30.5758C5.49138 30.2078 4.71538 29.6638 4.07538 28.9438C3.43538 28.2078 2.93938 27.3038 2.58738 26.2318C2.23538 25.1438 2.05938 23.8878 2.05938 22.4638C2.05938 21.0398 2.23538 19.7918 2.58738 18.7198C2.93938 17.6318 3.43538 16.7278 4.07538 16.0078C4.71538 15.2718 5.49138 14.7198 6.40338 14.3518C7.31538 13.9838 8.32338 13.7998 9.42738 13.7998C10.5314 13.7998 11.5394 13.9838 12.4514 14.3518C13.3634 14.7198 14.1394 15.2718 14.7794 16.0078C15.4194 16.7278 15.9154 17.6318 16.2674 18.7198C16.6194 19.7918 16.7954 21.0398 16.7954 22.4638C16.7954 23.8878 16.6194 25.1438 16.2674 26.2318C15.9154 27.3038 15.4194 28.2078 14.7794 28.9438C14.1394 29.6638 13.3634 30.2078 12.4514 30.5758C11.5394 30.9438 10.5314 31.1278 9.42738 31.1278ZM9.42738 27.8878C10.5314 27.8878 11.3874 27.5278 11.9954 26.8078C12.6194 26.0878 12.9314 25.0558 12.9314 23.7118V21.2158C12.9314 19.8718 12.6194 18.8398 11.9954 18.1198C11.3874 17.3998 10.5314 17.0398 9.42738 17.0398C8.32338 17.0398 7.45938 17.3998 6.83538 18.1198C6.22738 18.8398 5.92338 19.8718 5.92338 21.2158V23.7118C5.92338 25.0558 6.22738 26.0878 6.83538 26.8078C7.45938 27.5278 8.32338 27.8878 9.42738 27.8878ZM19.6482 30.8398V18.2398H23.2002V20.3758H23.3442C23.5682 19.7198 23.9602 19.1518 24.5202 18.6718C25.0802 18.1918 25.8562 17.9518 26.8482 17.9518C28.1442 17.9518 29.1202 18.3838 29.7762 19.2478C30.4482 20.1118 30.7842 21.3438 30.7842 22.9438V30.8398H27.2322V23.2318C27.2322 22.4158 27.1042 21.8158 26.8482 21.4318C26.5922 21.0318 26.1362 20.8318 25.4802 20.8318C25.1922 20.8318 24.9122 20.8718 24.6402 20.9518C24.3682 21.0158 24.1202 21.1278 23.8962 21.2878C23.6882 21.4478 23.5202 21.6478 23.3922 21.8878C23.2642 22.1118 23.2002 22.3758 23.2002 22.6798V30.8398H19.6482ZM45.2329 31.1278C43.7609 31.1278 42.5129 30.8798 41.4889 30.3838C40.4649 29.8718 39.5929 29.2158 38.8729 28.4158L41.2729 25.9918C42.4089 27.2718 43.8089 27.9118 45.4729 27.9118C46.3689 27.9118 47.0329 27.7278 47.4649 27.3598C47.8969 26.9918 48.1129 26.5038 48.1129 25.8958C48.1129 25.4318 47.9849 25.0478 47.7289 24.7438C47.4729 24.4238 46.9529 24.2078 46.1689 24.0958L44.5129 23.8798C42.7369 23.6558 41.4329 23.1198 40.6009 22.2718C39.7849 21.4238 39.3769 20.2958 39.3769 18.8878C39.3769 18.1358 39.5209 17.4478 39.8089 16.8238C40.0969 16.1998 40.5049 15.6638 41.0329 15.2158C41.5769 14.7678 42.2329 14.4238 43.0009 14.1838C43.7849 13.9278 44.6729 13.7998 45.6649 13.7998C46.9289 13.7998 48.0409 13.9998 49.0009 14.3998C49.9609 14.7998 50.7849 15.3838 51.4729 16.1518L49.0489 18.5998C48.6489 18.1358 48.1609 17.7598 47.5849 17.4718C47.0249 17.1678 46.3129 17.0158 45.4489 17.0158C44.6329 17.0158 44.0249 17.1598 43.6249 17.4478C43.2249 17.7358 43.0249 18.1358 43.0249 18.6478C43.0249 19.2238 43.1769 19.6398 43.4809 19.8958C43.8009 20.1518 44.3129 20.3358 45.0169 20.4478L46.6729 20.7118C48.4009 20.9838 49.6809 21.5198 50.5129 22.3198C51.3449 23.1038 51.7609 24.2238 51.7609 25.6798C51.7609 26.4798 51.6169 27.2158 51.3289 27.8878C51.0409 28.5598 50.6169 29.1358 50.0569 29.6158C49.5129 30.0958 48.8329 30.4718 48.0169 30.7438C47.2009 30.9998 46.2729 31.1278 45.2329 31.1278ZM54.5935 13.0798H58.1455V23.5678H58.2895L59.8495 21.2398L62.3695 18.2398H66.3055L62.1055 23.0638L66.7855 30.8398H62.5615L59.7295 25.5118L58.1455 27.2878V30.8398H54.5935V13.0798ZM70.2211 16.8958C69.5011 16.8958 68.9731 16.7358 68.6371 16.4158C68.3171 16.0798 68.1571 15.6558 68.1571 15.1438V14.6158C68.1571 14.1038 68.3171 13.6878 68.6371 13.3678C68.9731 13.0318 69.5011 12.8638 70.2211 12.8638C70.9411 12.8638 71.4611 13.0318 71.7811 13.3678C72.1171 13.6878 72.2851 14.1038 72.2851 14.6158V15.1438C72.2851 15.6558 72.1171 16.0798 71.7811 16.4158C71.4611 16.7358 70.9411 16.8958 70.2211 16.8958ZM68.4451 18.2398H71.9971V30.8398H68.4451V18.2398ZM78.8403 30.8398C77.6243 30.8398 76.7283 30.5438 76.1523 29.9518C75.5923 29.3598 75.3123 28.5038 75.3123 27.3838V13.0798H78.8643V28.0798H80.4483V30.8398H78.8403ZM85.9184 30.8398C84.7024 30.8398 83.8064 30.5438 83.2304 29.9518C82.6704 29.3598 82.3904 28.5038 82.3904 27.3838V13.0798H85.9424V28.0798H87.5264V30.8398H85.9184Z" fill="white"/>
<g clip-path="url(#clip0_426_3644)">
<path d="M121.641 2.03814C124.01 0.618649 127.081 1.3881 128.5 3.75675L136.725 17.481C138.144 19.8496 137.375 22.9205 135.006 24.34L121.282 32.5647C118.913 33.9842 115.843 33.2147 114.423 30.8461L106.198 17.1219C104.779 14.7532 105.548 11.6823 107.917 10.2628L121.641 2.03814Z" fill="url(#paint0_linear_426_3644)"/>
<path d="M121.641 2.03814C124.01 0.618649 127.081 1.3881 128.5 3.75675L136.725 17.481C138.144 19.8496 137.375 22.9205 135.006 24.34L121.282 32.5647C118.913 33.9842 115.843 33.2147 114.423 30.8461L106.198 17.1219C104.779 14.7532 105.548 11.6823 107.917 10.2628L121.641 2.03814Z" stroke="white" stroke-width="2"/>
<path d="M116.862 13.0835C119.231 11.6641 122.302 12.4335 123.721 14.8022L131.946 28.5264C133.366 30.895 132.596 33.9659 130.227 35.3854L116.503 43.6101C114.135 45.0296 111.064 44.2602 109.644 41.8915L101.419 28.1673C100 25.7986 100.769 22.7277 103.138 21.3082L116.862 13.0835Z" fill="url(#paint1_linear_426_3644)"/>
<path d="M116.862 13.0835C119.231 11.6641 122.302 12.4335 123.721 14.8022L131.946 28.5264C133.366 30.895 132.596 33.9659 130.227 35.3854L116.503 43.6101C114.135 45.0296 111.064 44.2602 109.644 41.8915L101.419 28.1673C100 25.7986 100.769 22.7277 103.138 21.3082L116.862 13.0835Z" stroke="white" stroke-width="2"/>
</g>
<defs>
<linearGradient id="paint0_linear_426_3644" x1="123.779" y1="2.79423" x2="113.279" y2="40.2942" gradientUnits="userSpaceOnUse">
<stop stop-color="#393962"/>
<stop offset="1" stop-color="#7474C8"/>
</linearGradient>
<linearGradient id="paint1_linear_426_3644" x1="119" y1="13.8396" x2="108.5" y2="51.3396" gradientUnits="userSpaceOnUse">
<stop stop-color="#393962"/>
<stop offset="1" stop-color="#7474C8"/>
</linearGradient>
<clipPath id="clip0_426_3644">
<rect width="38" height="44" fill="white" transform="translate(100 0.839844)"/>
</clipPath>
</defs>
</svg>
