<svg width="158" height="156" viewBox="0 0 158 156" fill="none" xmlns="http://www.w3.org/2000/svg">
<rect x="47.0767" y="23.9307" width="48" height="48" rx="10" transform="rotate(-30.9335 47.0767 23.9307)" fill="url(#paint0_linear_92_11745)"/>
<rect x="47.0767" y="23.9307" width="48" height="48" rx="10" transform="rotate(-30.9335 47.0767 23.9307)" stroke="white" stroke-width="4"/>
<rect x="44.0767" y="38.9307" width="48" height="48" rx="10" transform="rotate(-30.9335 44.0767 38.9307)" fill="url(#paint1_linear_92_11745)"/>
<rect x="44.0767" y="38.9307" width="48" height="48" rx="10" transform="rotate(-30.9335 44.0767 38.9307)" stroke="white" stroke-width="4"/>
<path d="M14.4502 137.887C12.4262 137.887 10.5782 137.55 8.90619 136.875C7.23419 136.201 5.81152 135.203 4.63819 133.883C3.46485 132.534 2.55552 130.877 1.91019 128.911C1.26485 126.917 0.942188 124.614 0.942188 122.003C0.942188 119.393 1.26485 117.105 1.91019 115.139C2.55552 113.145 3.46485 111.487 4.63819 110.167C5.81152 108.818 7.23419 107.806 8.90619 107.131C10.5782 106.457 12.4262 106.119 14.4502 106.119C16.4742 106.119 18.3222 106.457 19.9942 107.131C21.6662 107.806 23.0889 108.818 24.2622 110.167C25.4355 111.487 26.3449 113.145 26.9902 115.139C27.6355 117.105 27.9582 119.393 27.9582 122.003C27.9582 124.614 27.6355 126.917 26.9902 128.911C26.3449 130.877 25.4355 132.534 24.2622 133.883C23.0889 135.203 21.6662 136.201 19.9942 136.875C18.3222 137.55 16.4742 137.887 14.4502 137.887ZM14.4502 131.947C16.4742 131.947 18.0435 131.287 19.1582 129.967C20.3022 128.647 20.8742 126.755 20.8742 124.291V119.715C20.8742 117.251 20.3022 115.359 19.1582 114.039C18.0435 112.719 16.4742 112.059 14.4502 112.059C12.4262 112.059 10.8422 112.719 9.69819 114.039C8.58352 115.359 8.02619 117.251 8.02619 119.715V124.291C8.02619 126.755 8.58352 128.647 9.69819 129.967C10.8422 131.287 12.4262 131.947 14.4502 131.947ZM33.1883 137.359V114.259H39.7003V118.175H39.9643C40.375 116.973 41.0937 115.931 42.1203 115.051C43.147 114.171 44.5697 113.731 46.3883 113.731C48.7643 113.731 50.5537 114.523 51.7563 116.107C52.9883 117.691 53.6043 119.95 53.6043 122.883V137.359H47.0923V123.411C47.0923 121.915 46.8577 120.815 46.3883 120.111C45.919 119.378 45.083 119.011 43.8803 119.011C43.3523 119.011 42.839 119.085 42.3403 119.231C41.8417 119.349 41.387 119.554 40.9763 119.847C40.595 120.141 40.287 120.507 40.0523 120.947C39.8177 121.358 39.7003 121.842 39.7003 122.399V137.359H33.1883ZM80.0937 137.887C77.3951 137.887 75.1071 137.433 73.2297 136.523C71.3524 135.585 69.7537 134.382 68.4337 132.915L72.8337 128.471C74.9164 130.818 77.4831 131.991 80.5337 131.991C82.1764 131.991 83.3937 131.654 84.1857 130.979C84.9777 130.305 85.3737 129.41 85.3737 128.295C85.3737 127.445 85.1391 126.741 84.6697 126.183C84.2004 125.597 83.2471 125.201 81.8097 124.995L78.7737 124.599C75.5177 124.189 73.1271 123.206 71.6017 121.651C70.1057 120.097 69.3577 118.029 69.3577 115.447C69.3577 114.069 69.6217 112.807 70.1497 111.663C70.6777 110.519 71.4257 109.537 72.3937 108.715C73.3911 107.894 74.5937 107.263 76.0017 106.823C77.4391 106.354 79.0671 106.119 80.8857 106.119C83.2031 106.119 85.2417 106.486 87.0017 107.219C88.7617 107.953 90.2724 109.023 91.5337 110.431L87.0897 114.919C86.3564 114.069 85.4617 113.379 84.4057 112.851C83.3791 112.294 82.0737 112.015 80.4897 112.015C78.9937 112.015 77.8791 112.279 77.1457 112.807C76.4124 113.335 76.0457 114.069 76.0457 115.007C76.0457 116.063 76.3244 116.826 76.8817 117.295C77.4684 117.765 78.4071 118.102 79.6977 118.307L82.7337 118.791C85.9017 119.29 88.2484 120.273 89.7737 121.739C91.2991 123.177 92.0617 125.23 92.0617 127.899C92.0617 129.366 91.7977 130.715 91.2697 131.947C90.7417 133.179 89.9644 134.235 88.9377 135.115C87.9404 135.995 86.6937 136.685 85.1977 137.183C83.7017 137.653 82.0004 137.887 80.0937 137.887ZM97.2548 104.799H103.767V124.027H104.031L106.891 119.759L111.511 114.259H118.727L111.027 123.103L119.607 137.359H111.863L106.671 127.591L103.767 130.847V137.359H97.2548V104.799ZM125.905 111.795C124.585 111.795 123.617 111.502 123.001 110.915C122.415 110.299 122.121 109.522 122.121 108.583V107.615C122.121 106.677 122.415 105.914 123.001 105.327C123.617 104.711 124.585 104.403 125.905 104.403C127.225 104.403 128.179 104.711 128.765 105.327C129.381 105.914 129.689 106.677 129.689 107.615V108.583C129.689 109.522 129.381 110.299 128.765 110.915C128.179 111.502 127.225 111.795 125.905 111.795ZM122.649 114.259H129.161V137.359H122.649V114.259ZM141.707 137.359C139.478 137.359 137.835 136.817 136.779 135.731C135.752 134.646 135.239 133.077 135.239 131.023V104.799H141.751V132.299H144.655V137.359H141.707ZM154.684 137.359C152.454 137.359 150.812 136.817 149.756 135.731C148.729 134.646 148.216 133.077 148.216 131.023V104.799H154.728V132.299H157.632V137.359H154.684Z" fill="white"/>
<defs>
<linearGradient id="paint0_linear_92_11745" x1="89.1361" y1="25.9884" x2="37.2837" y2="75.0644" gradientUnits="userSpaceOnUse">
<stop stop-color="#393962"/>
<stop offset="1" stop-color="#7474C8"/>
</linearGradient>
<linearGradient id="paint1_linear_92_11745" x1="86.1361" y1="40.9884" x2="34.2837" y2="90.0644" gradientUnits="userSpaceOnUse">
<stop stop-color="#393962"/>
<stop offset="1" stop-color="#7474C8"/>
</linearGradient>
</defs>
</svg>
